G04*
G04 #@! TF.GenerationSoftware,Altium Limited,Altium Designer,18.1.7 (191)*
G04*
G04 Layer_Physical_Order=1*
G04 Layer_Color=255*
%FSLAX44Y44*%
%MOMM*%
G71*
G01*
G75*
G04:AMPARAMS|DCode=12|XSize=12.7mm|YSize=2mm|CornerRadius=0.5mm|HoleSize=0mm|Usage=FLASHONLY|Rotation=0.000|XOffset=0mm|YOffset=0mm|HoleType=Round|Shape=RoundedRectangle|*
%AMROUNDEDRECTD12*
21,1,12.7000,1.0000,0,0,0.0*
21,1,11.7000,2.0000,0,0,0.0*
1,1,1.0000,5.8500,-0.5000*
1,1,1.0000,-5.8500,-0.5000*
1,1,1.0000,-5.8500,0.5000*
1,1,1.0000,5.8500,0.5000*
%
%ADD12ROUNDEDRECTD12*%
%ADD13R,1.3000X1.5000*%
%ADD14R,6.0000X6.0000*%
G04:AMPARAMS|DCode=15|XSize=2mm|YSize=1mm|CornerRadius=0mm|HoleSize=0mm|Usage=FLASHONLY|Rotation=0.000|XOffset=0mm|YOffset=0mm|HoleType=Round|Shape=Octagon|*
%AMOCTAGOND15*
4,1,8,1.0000,-0.2500,1.0000,0.2500,0.7500,0.5000,-0.7500,0.5000,-1.0000,0.2500,-1.0000,-0.2500,-0.7500,-0.5000,0.7500,-0.5000,1.0000,-0.2500,0.0*
%
%ADD15OCTAGOND15*%

%ADD16R,2.0000X1.0000*%
%ADD22R,15.3000X11.0000*%
%ADD24C,0.4000*%
%ADD25C,1.0000*%
%ADD26C,0.5000*%
%ADD27R,2.9000X1.4000*%
%ADD28R,1.8000X2.0000*%
%ADD29R,2.8000X2.0000*%
%ADD30R,2.3000X1.2000*%
%ADD31R,0.8000X2.3000*%
%ADD32R,1.8000X1.8000*%
%ADD33C,0.4800*%
G36*
X670000Y452000D02*
Y342000D01*
X700000D01*
X703408D01*
X710166Y342890D01*
X716751Y344654D01*
X723048Y347263D01*
X728952Y350671D01*
X734360Y354820D01*
X739180Y359640D01*
X743329Y365048D01*
X746737Y370952D01*
X749346Y377249D01*
X751110Y383833D01*
X752000Y390592D01*
Y394000D01*
X752000Y394000D01*
X752000Y397802D01*
X751008Y405340D01*
X749040Y412683D01*
X746130Y419708D01*
X742329Y426292D01*
X737700Y432324D01*
X732324Y437700D01*
X726292Y442329D01*
X719708Y446130D01*
X712683Y449040D01*
X705340Y451008D01*
X697802Y452000D01*
X694000D01*
X694000Y452000D01*
X670000D01*
D02*
G37*
D12*
X287000Y358900D02*
D03*
Y435100D02*
D03*
D13*
X487500Y385000D02*
D03*
X506500D02*
D03*
X487500Y411000D02*
D03*
X506500D02*
D03*
X506500Y359000D02*
D03*
X487500D02*
D03*
X507000Y436000D02*
D03*
X488000D02*
D03*
D14*
X396000Y399000D02*
D03*
D15*
X463500Y375000D02*
D03*
D16*
X462500Y421000D02*
D03*
D22*
X621500Y397000D02*
D03*
D24*
X467000Y420000D02*
Y422000D01*
X507000Y423000D02*
Y434000D01*
X506500Y379500D02*
Y382000D01*
X490500Y363500D02*
X506500Y379500D01*
X490500Y361500D02*
Y363500D01*
X506500Y382000D02*
Y408000D01*
Y407000D02*
Y409500D01*
X467000Y422000D02*
Y425000D01*
X457000Y422000D02*
Y430000D01*
X506500Y409500D02*
X507000Y410000D01*
Y356500D02*
Y358000D01*
X487000Y390000D02*
X487500Y390500D01*
Y410000D01*
X466000Y430000D02*
X467000Y425000D01*
X463500Y422000D02*
X467000D01*
X417000Y400000D02*
X486920D01*
X506500Y356000D02*
X507000Y356500D01*
D25*
X457000Y372000D02*
Y375000D01*
X445000Y360000D02*
X457000Y372000D01*
X342000Y360000D02*
X445000D01*
X468000Y372500D02*
Y374000D01*
X467000Y375000D02*
X468000Y374000D01*
D26*
Y365000D02*
Y372500D01*
X468500Y363000D02*
X485000D01*
D27*
X475500Y436000D02*
D03*
D28*
X463000Y433000D02*
D03*
D29*
X461000Y370000D02*
D03*
D30*
X349500Y435000D02*
D03*
D31*
X358000Y440500D02*
D03*
D32*
X530800Y422400D02*
D03*
Y371600D02*
D03*
Y397000D02*
D03*
D33*
X610000Y370000D02*
D03*
X412000Y424000D02*
D03*
X402000D02*
D03*
X392000D02*
D03*
X382000D02*
D03*
X372000D02*
D03*
X422000D02*
D03*
X359000Y434000D02*
D03*
Y448000D02*
D03*
Y441000D02*
D03*
X565000Y413000D02*
D03*
Y398000D02*
D03*
Y383000D02*
D03*
Y368000D02*
D03*
Y353000D02*
D03*
X580000D02*
D03*
Y368000D02*
D03*
Y383000D02*
D03*
Y398000D02*
D03*
Y413000D02*
D03*
X595000Y353000D02*
D03*
Y368000D02*
D03*
Y383000D02*
D03*
Y413000D02*
D03*
X610000Y353000D02*
D03*
Y368000D02*
D03*
Y383000D02*
D03*
Y398000D02*
D03*
Y413000D02*
D03*
X625000Y353000D02*
D03*
Y368000D02*
D03*
Y383000D02*
D03*
Y398000D02*
D03*
Y413000D02*
D03*
X422000Y415000D02*
D03*
Y405000D02*
D03*
Y395000D02*
D03*
Y385000D02*
D03*
Y375000D02*
D03*
X372000Y415000D02*
D03*
Y405000D02*
D03*
Y395000D02*
D03*
Y385000D02*
D03*
Y375000D02*
D03*
X382000D02*
D03*
Y385000D02*
D03*
Y395000D02*
D03*
Y405000D02*
D03*
Y415000D02*
D03*
X392000Y375000D02*
D03*
Y385000D02*
D03*
Y395000D02*
D03*
Y405000D02*
D03*
Y415000D02*
D03*
X402000Y375000D02*
D03*
Y385000D02*
D03*
Y395000D02*
D03*
Y405000D02*
D03*
Y415000D02*
D03*
X412000Y375000D02*
D03*
Y385000D02*
D03*
Y395000D02*
D03*
Y405000D02*
D03*
Y415000D02*
D03*
X745000Y413000D02*
D03*
Y398000D02*
D03*
Y383000D02*
D03*
X730000Y428000D02*
D03*
Y413000D02*
D03*
Y398000D02*
D03*
Y383000D02*
D03*
Y368000D02*
D03*
X685000Y353000D02*
D03*
Y368000D02*
D03*
Y383000D02*
D03*
Y398000D02*
D03*
Y413000D02*
D03*
Y428000D02*
D03*
Y443000D02*
D03*
X700000Y353000D02*
D03*
Y368000D02*
D03*
Y383000D02*
D03*
Y398000D02*
D03*
Y413000D02*
D03*
Y428000D02*
D03*
Y443000D02*
D03*
X715000Y353000D02*
D03*
Y368000D02*
D03*
Y383000D02*
D03*
Y398000D02*
D03*
Y413000D02*
D03*
Y428000D02*
D03*
Y443000D02*
D03*
X640000Y353000D02*
D03*
Y368000D02*
D03*
Y383000D02*
D03*
Y398000D02*
D03*
Y413000D02*
D03*
Y428000D02*
D03*
Y443000D02*
D03*
X655000Y353000D02*
D03*
Y368000D02*
D03*
Y383000D02*
D03*
Y398000D02*
D03*
Y413000D02*
D03*
Y428000D02*
D03*
Y443000D02*
D03*
X670000Y353000D02*
D03*
Y368000D02*
D03*
Y383000D02*
D03*
Y398000D02*
D03*
Y413000D02*
D03*
Y428000D02*
D03*
Y443000D02*
D03*
X625000D02*
D03*
Y428000D02*
D03*
Y413000D02*
D03*
Y398000D02*
D03*
Y383000D02*
D03*
Y368000D02*
D03*
Y353000D02*
D03*
X610000Y443000D02*
D03*
Y428000D02*
D03*
X595000Y443000D02*
D03*
Y428000D02*
D03*
Y413000D02*
D03*
X595000Y398000D02*
D03*
X595000Y383000D02*
D03*
Y368000D02*
D03*
Y353000D02*
D03*
X580000Y443000D02*
D03*
Y428000D02*
D03*
Y413000D02*
D03*
Y398000D02*
D03*
Y383000D02*
D03*
Y368000D02*
D03*
Y353000D02*
D03*
X565000Y443000D02*
D03*
Y428000D02*
D03*
Y413000D02*
D03*
Y398000D02*
D03*
Y383000D02*
D03*
Y368000D02*
D03*
Y353000D02*
D03*
X550000D02*
D03*
Y368000D02*
D03*
Y383000D02*
D03*
Y398000D02*
D03*
Y413000D02*
D03*
Y428000D02*
D03*
Y443000D02*
D03*
X507000Y423000D02*
D03*
Y358000D02*
D03*
X457000Y430000D02*
D03*
X466000D02*
D03*
M02*
