M48
;Layer_Color=9474304
;FILE_FORMAT=4:4
METRIC,LZ
;TYPE=PLATED
T1F00S00C0.2540
T2F00S00C0.8000
%
T01
X00372Y00375
Y00385
Y00395
X00382
Y00385
Y00375
X00392
Y00385
Y00395
X00402
X00412
X00422
Y00385
X00412
X00402
Y00375
X00412
X00422
X00507Y00358
X0055Y00353
X00565
X00565
X0058
X0058
X00595
X00595
X0061
X00625
X00625
Y00368
X00625
X0061
X0061Y0037
X0061Y00383
X00625
X00625
X0064
X00655
Y00368
X0064
Y00353
X00655
X0067
X00685
X007
Y00368
X00685
Y00383
X007
X00715
X0073
X00745
X0073Y00368
X00715
Y00353
X0067Y00368
Y00383
X00595
X00595
X0058
X0058
X00565
X00565
X0055
Y00368
X00565
X00565
X0058
X0058
X00595
X00595
X00595Y00398
X0058
X0058
X00565
X00565
X0055
Y00413
X00565
X00565
X0058
X0058
X00595
X00595
X0061
X00625
X00625
Y00428
Y00443
X0061
X00595
Y00428
X0061
X0058
Y00443
X00565
Y00428
X0055
Y00443
X00507Y00423
X00466Y0043
X00457
X00422Y00424
Y00415
X00412
Y00424
X00402
Y00415
Y00405
X00412
X00422
X0061Y00398
X00625
X00625
X0064
X00655
Y00413
X0064
Y00428
X00655
Y00443
X0064
X0067
X00685
X007
Y00428
X00685
Y00413
X007
Y00398
X00685
X0067
Y00413
Y00428
X00715
X0073
Y00413
X00745
Y00398
X0073
X00715
Y00413
Y00443
X00392Y00424
Y00415
X00382
Y00424
X00372
Y00415
Y00405
X00382
X00392
X00359Y00434
Y00441
Y00448
T02
X005308Y003716
Y00397
Y004224
M30
