M48
;Layer_Color=9474304
;FILE_FORMAT=4:4
METRIC,LZ
;TYPE=PLATED
T1F00S00C0.2540
;TYPE=NON_PLATED
%
T01
X0055Y00353
X00565
X00565
X0058
X0058
X00595
X00595
X0061
X00625
X00625
Y00368
X00625
X0061
X0061Y0037
X0061Y00383
X00625
X00625
X0064
X00655
Y00368
X0064
Y00353
X00655
X0067
X00685
X007
Y00368
X00685
Y00383
X007
X00715
X0073
X00745
X0073Y00368
X00715
Y00353
X0067Y00368
Y00383
X00595
X00595
X0058
X0058
X00565
X00565
X0055
Y00368
X00565
X00565
X0058
X0058
X00595
X00595
X00595Y00398
X0058
X0058
X00565
X00565
X0055
Y00413
X00565
X00565
X0058
X0058
X00595
X00595
X0061
X00625
X00625
Y00428
Y00443
X0061
X00595
Y00428
X0061
X0058
Y00443
X00565
Y00428
X0055
Y00443
X0064
X00655
Y00428
X0064
Y00413
X00655
Y00398
X0064
X00625
X00625
X0061
X0067
X00685
X007
Y00413
X00685
Y00428
X007
Y00443
X00685
X0067
Y00428
Y00413
X00715
X0073
X00745
Y00398
X0073
X00715
Y00428
X0073
X00715Y00443
M30
