G04*
G04 #@! TF.GenerationSoftware,Altium Limited,Altium Designer,18.1.7 (191)*
G04*
G04 Layer_Physical_Order=1*
G04 Layer_Color=255*
%FSLAX44Y44*%
%MOMM*%
G71*
G01*
G75*
%ADD12R,46.8000X11.0000*%
%ADD13R,1.8000X1.8000*%
%ADD14C,0.4800*%
G36*
X670000Y452000D02*
Y342000D01*
X700000D01*
X703408D01*
X710166Y342890D01*
X716751Y344654D01*
X723048Y347263D01*
X728952Y350671D01*
X734360Y354820D01*
X739180Y359640D01*
X743329Y365048D01*
X746737Y370952D01*
X749346Y377249D01*
X751110Y383833D01*
X752000Y390592D01*
Y394000D01*
X752000Y394000D01*
X752000Y397802D01*
X751008Y405340D01*
X749040Y412683D01*
X746130Y419708D01*
X742329Y426292D01*
X737700Y432324D01*
X732324Y437700D01*
X726292Y442329D01*
X719708Y446130D01*
X712683Y449040D01*
X705340Y451008D01*
X697802Y452000D01*
X694000D01*
X694000Y452000D01*
X670000D01*
D02*
G37*
D12*
X464000Y397000D02*
D03*
D13*
X531000Y397000D02*
D03*
D14*
X610000Y370000D02*
D03*
X565000Y413000D02*
D03*
Y398000D02*
D03*
Y383000D02*
D03*
Y368000D02*
D03*
Y353000D02*
D03*
X580000D02*
D03*
Y368000D02*
D03*
Y383000D02*
D03*
Y398000D02*
D03*
Y413000D02*
D03*
X595000Y353000D02*
D03*
Y368000D02*
D03*
Y383000D02*
D03*
Y413000D02*
D03*
X610000Y353000D02*
D03*
Y368000D02*
D03*
Y383000D02*
D03*
Y398000D02*
D03*
Y413000D02*
D03*
X625000Y353000D02*
D03*
Y368000D02*
D03*
Y383000D02*
D03*
Y398000D02*
D03*
Y413000D02*
D03*
X745000D02*
D03*
Y398000D02*
D03*
Y383000D02*
D03*
X730000Y428000D02*
D03*
Y413000D02*
D03*
Y398000D02*
D03*
Y383000D02*
D03*
Y368000D02*
D03*
X685000Y353000D02*
D03*
Y368000D02*
D03*
Y383000D02*
D03*
Y398000D02*
D03*
Y413000D02*
D03*
Y428000D02*
D03*
Y443000D02*
D03*
X700000Y353000D02*
D03*
Y368000D02*
D03*
Y383000D02*
D03*
Y398000D02*
D03*
Y413000D02*
D03*
Y428000D02*
D03*
Y443000D02*
D03*
X715000Y353000D02*
D03*
Y368000D02*
D03*
Y383000D02*
D03*
Y398000D02*
D03*
Y413000D02*
D03*
Y428000D02*
D03*
Y443000D02*
D03*
X640000Y353000D02*
D03*
Y368000D02*
D03*
Y383000D02*
D03*
Y398000D02*
D03*
Y413000D02*
D03*
Y428000D02*
D03*
Y443000D02*
D03*
X655000Y353000D02*
D03*
Y368000D02*
D03*
Y383000D02*
D03*
Y398000D02*
D03*
Y413000D02*
D03*
Y428000D02*
D03*
Y443000D02*
D03*
X670000Y353000D02*
D03*
Y368000D02*
D03*
Y383000D02*
D03*
Y398000D02*
D03*
Y413000D02*
D03*
Y428000D02*
D03*
Y443000D02*
D03*
X625000D02*
D03*
Y428000D02*
D03*
Y413000D02*
D03*
Y398000D02*
D03*
Y383000D02*
D03*
Y368000D02*
D03*
Y353000D02*
D03*
X610000Y443000D02*
D03*
Y428000D02*
D03*
X595000Y443000D02*
D03*
Y428000D02*
D03*
Y413000D02*
D03*
X595000Y398000D02*
D03*
X595000Y383000D02*
D03*
Y368000D02*
D03*
Y353000D02*
D03*
X580000Y443000D02*
D03*
Y428000D02*
D03*
Y413000D02*
D03*
Y398000D02*
D03*
Y383000D02*
D03*
Y368000D02*
D03*
Y353000D02*
D03*
X565000Y443000D02*
D03*
Y428000D02*
D03*
Y413000D02*
D03*
Y398000D02*
D03*
Y383000D02*
D03*
Y368000D02*
D03*
Y353000D02*
D03*
X550000D02*
D03*
Y368000D02*
D03*
Y383000D02*
D03*
Y398000D02*
D03*
Y413000D02*
D03*
Y428000D02*
D03*
Y443000D02*
D03*
M02*
