G04*
G04 #@! TF.GenerationSoftware,Altium Limited,Altium Designer,18.1.7 (191)*
G04*
G04 Layer_Color=65535*
%FSLAX44Y44*%
%MOMM*%
G71*
G01*
G75*
%ADD10C,0.2540*%
D10*
X311849Y403748D02*
X307684D01*
X309766D01*
Y393335D01*
X307684Y391252D01*
X305601D01*
X303518Y393335D01*
X316014Y403748D02*
Y391252D01*
X324345D01*
X336841Y401665D02*
X334758Y403748D01*
X330593D01*
X328510Y401665D01*
Y393335D01*
X330593Y391252D01*
X334758D01*
X336841Y393335D01*
X349337Y403748D02*
X345171D01*
X347254D01*
Y393335D01*
X345171Y391252D01*
X343089D01*
X341006Y393335D01*
X353502Y403748D02*
Y391252D01*
X361833D01*
X374329Y401665D02*
X372246Y403748D01*
X368081D01*
X365998Y401665D01*
Y393335D01*
X368081Y391252D01*
X372246D01*
X374329Y393335D01*
X386825Y403748D02*
X382659D01*
X384742D01*
Y393335D01*
X382659Y391252D01*
X380577D01*
X378494Y393335D01*
X390990Y403748D02*
Y391252D01*
X399320D01*
X411816Y401665D02*
X409734Y403748D01*
X405569D01*
X403486Y401665D01*
Y393335D01*
X405569Y391252D01*
X409734D01*
X411816Y393335D01*
X424312Y403748D02*
X420147D01*
X422230D01*
Y393335D01*
X420147Y391252D01*
X418064D01*
X415982Y393335D01*
X428478Y403748D02*
Y391252D01*
X436808D01*
X449304Y401665D02*
X447222Y403748D01*
X443056D01*
X440974Y401665D01*
Y393335D01*
X443056Y391252D01*
X447222D01*
X449304Y393335D01*
M02*
